<?xml version="1.0" encoding="iso-8859-1"?>
<!-- Generator: Adobe Illustrator 15.1.0, SVG Export Plug-In . SVG Version: 6.00 Build 0)  -->
<!DOCTYPE svg PUBLIC "-//W3C//DTD SVG 1.1//EN" "http://www.w3.org/Graphics/SVG/1.1/DTD/svg11.dtd">
<svg xmlns="http://www.w3.org/2000/svg" xmlns:xlink="http://www.w3.org/1999/xlink" version="1.1" id="Layer_1" x="0px" y="0px" width="512" height="512" viewBox="0 0 128 128" style="enable-background:new 0 0 128 128;" xml:space="preserve">
<g>
	<circle style="fill:#88C5CC;" cx="64" cy="64" r="64"/>
	<g>
		<path style="fill:#F5F5F5;" d="M39,22.583c-0.327,0-0.648,0.025-0.965,0.063c-1.821-2.461-4.736-4.063-8.035-4.063    c-5.526,0-10,4.478-10,10c0,0.331,0.018,0.658,0.05,0.981c-1.237,0.91-2.05,2.573-2.05,4.227c0,2.761,2.237,5.208,5,5.208    c1.065,0,5.521,0,7,0c1.731,0,7.448,0,9,0c4.421,0,8-3.79,8-8.208S43.421,22.583,39,22.583z"/>
		<path style="fill:#E6E6E6;" d="M39,22.583c-0.327,0-0.648,0.025-0.965,0.063c-1.821-2.461-4.736-4.063-8.035-4.063    c-0.357,0-0.71,0.021-1.058,0.057c2.906,0.273,5.447,1.783,7.093,4.006c0.316-0.038,0.638-0.063,0.965-0.063    c4.421,0,8,3.791,8,8.208S41.421,39,37,39c0.86,0,1.583,0,2,0c4.421,0,8-3.79,8-8.208S43.421,22.583,39,22.583z"/>
	</g>
	<g>
		<path style="fill:#F5F5F5;" d="M14,48.083c-0.064,0-0.129-0.012-0.192-0.039c-0.255-0.106-0.375-0.399-0.269-0.654    c0.251-0.602,0.54-1.224,0.858-1.847c0.126-0.245,0.427-0.343,0.673-0.218c0.246,0.126,0.343,0.427,0.218,0.673    c-0.307,0.601-0.585,1.199-0.826,1.777C14.381,47.968,14.196,48.083,14,48.083z"/>
		<path style="fill:#F5F5F5;" d="M84,97.083c-0.594,0-1.197-0.054-1.792-0.159c-0.272-0.048-0.453-0.308-0.405-0.58    c0.049-0.271,0.305-0.453,0.58-0.404c1.305,0.229,2.626,0.154,3.881,0.051c0.275-0.026,0.519,0.181,0.541,0.455    c0.022,0.275-0.182,0.518-0.457,0.539C85.582,97.051,84.792,97.083,84,97.083z M94.094,95.034c-0.191,0-0.376-0.111-0.457-0.3    c-0.111-0.252,0.004-0.547,0.256-0.658c1.193-0.523,2.359-1.159,3.465-1.887c0.23-0.152,0.543-0.088,0.692,0.143    c0.152,0.23,0.089,0.541-0.143,0.691c-1.153,0.76-2.369,1.422-3.613,1.969C94.229,95.021,94.161,95.034,94.094,95.034z     M75.27,93.201c-0.117,0-0.231-0.04-0.328-0.122c-0.945-0.817-1.903-1.753-2.928-2.861c-0.188-0.202-0.175-0.52,0.028-0.707    c0.203-0.187,0.521-0.175,0.707,0.028c0.997,1.08,1.928,1.99,2.847,2.781c0.209,0.182,0.232,0.496,0.053,0.707    C75.548,93.143,75.409,93.201,75.27,93.201z M33.693,90.318c-0.218,0-0.418-0.146-0.48-0.364    c-0.075-0.267,0.079-0.542,0.345-0.617c1.166-0.33,2.341-0.883,3.496-1.646c0.232-0.149,0.541-0.086,0.693,0.143    c0.152,0.23,0.088,0.541-0.142,0.693c-1.24,0.816-2.51,1.414-3.774,1.771C33.785,90.313,33.739,90.318,33.693,90.318z     M25.819,89.632c-0.067,0-0.134-0.013-0.199-0.042c-1.287-0.558-2.479-1.295-3.544-2.189c-0.211-0.178-0.239-0.492-0.061-0.705    c0.177-0.213,0.493-0.238,0.705-0.062c0.991,0.833,2.101,1.519,3.299,2.039c0.253,0.11,0.369,0.404,0.259,0.658    C26.196,89.52,26.012,89.632,25.819,89.632z M103.6,87.715c-0.113,0-0.227-0.038-0.32-0.115c-0.213-0.178-0.24-0.492-0.063-0.705    c0.826-0.988,1.617-2.066,2.354-3.203c0.15-0.23,0.461-0.299,0.691-0.146c0.23,0.148,0.299,0.459,0.146,0.689    c-0.758,1.17-1.573,2.279-2.426,3.303C103.884,87.654,103.742,87.715,103.6,87.715z M67.257,84.128    c-0.151,0-0.301-0.067-0.399-0.198c-0.801-1.059-1.605-2.146-2.417-3.248c-0.164-0.223-0.117-0.535,0.106-0.699    c0.222-0.164,0.535-0.116,0.699,0.105c0.812,1.1,1.612,2.184,2.412,3.238c0.167,0.22,0.122,0.533-0.099,0.699    C67.468,84.095,67.361,84.128,67.257,84.128z M43.144,83.051c-0.11,0-0.222-0.037-0.314-0.111    c-0.214-0.174-0.248-0.487-0.073-0.703c0.765-0.942,1.553-1.99,2.41-3.201c0.16-0.227,0.471-0.278,0.697-0.119    c0.225,0.16,0.279,0.473,0.119,0.695c-0.87,1.229-1.671,2.293-2.45,3.255C43.434,82.986,43.29,83.051,43.144,83.051z     M17.926,80.912c-0.207,0-0.4-0.129-0.472-0.336c-0.451-1.296-0.749-2.659-0.886-4.051c-0.027-0.274,0.174-0.521,0.449-0.547    c0.28-0.021,0.519,0.174,0.546,0.448c0.129,1.313,0.411,2.601,0.835,3.821c0.091,0.261-0.047,0.545-0.308,0.636    C18.036,80.902,17.981,80.912,17.926,80.912z M109.662,77.284c-0.063,0-0.125-0.011-0.186-0.036    c-0.256-0.102-0.381-0.393-0.278-0.648c0.483-1.214,0.93-2.481,1.327-3.773c0.08-0.266,0.354-0.415,0.625-0.331    c0.264,0.081,0.412,0.36,0.33,0.625c-0.404,1.315-0.859,2.612-1.354,3.85C110.048,77.165,109.859,77.284,109.662,77.284z     M60.001,74.407c-0.149,0-0.297-0.067-0.396-0.194c-0.896-1.158-1.718-2.186-2.515-3.143c-0.177-0.213-0.148-0.527,0.064-0.704    c0.212-0.177,0.528-0.147,0.704,0.063c0.804,0.967,1.634,2.004,2.537,3.17c0.169,0.219,0.129,0.532-0.089,0.701    C60.215,74.373,60.108,74.407,60.001,74.407z M50.063,73.104c-0.094,0-0.189-0.024-0.273-0.082    c-0.231-0.149-0.295-0.461-0.144-0.69c0.753-1.147,1.502-2.281,2.253-3.369c0.157-0.229,0.468-0.284,0.696-0.127    c0.227,0.157,0.284,0.47,0.127,0.696c-0.747,1.08-1.492,2.205-2.241,3.349C50.386,73.023,50.226,73.104,50.063,73.104z     M18.122,69.042c-0.06,0-0.12-0.011-0.179-0.033c-0.258-0.099-0.387-0.388-0.288-0.646c0.5-1.305,1.156-2.537,1.949-3.665    c0.159-0.226,0.471-0.28,0.697-0.122c0.226,0.158,0.28,0.471,0.122,0.697c-0.747,1.061-1.363,2.221-1.834,3.446    C18.512,68.919,18.323,69.042,18.122,69.042z M112.791,65.6c-0.025,0-0.05-0.002-0.076-0.006c-0.273-0.042-0.46-0.296-0.419-0.568    c0.076-0.502,0.146-1.002,0.208-1.502c0.1-0.789,0.148-1.606,0.148-2.429c0-0.276,0.396-0.505,0.674-0.505    c0.277,0,0.674,0.216,0.674,0.493v0.011c0,0.864-0.227,1.723-0.33,2.553c-0.063,0.509-0.221,1.019-0.299,1.529    C113.333,65.422,113.034,65.6,112.791,65.6z M51.958,65.35c-0.122,0-0.243-0.043-0.339-0.133c-1.023-0.945-2.052-1.803-3.059-2.55    c-0.222-0.165-0.268-0.478-0.103-0.7c0.165-0.221,0.478-0.268,0.7-0.103c1.034,0.769,2.091,1.649,3.141,2.619    c0.203,0.187,0.215,0.503,0.028,0.707C52.228,65.296,52.093,65.35,51.958,65.35z M26.077,60.281c-0.183,0-0.358-0.1-0.446-0.274    c-0.125-0.246-0.027-0.547,0.22-0.672c1.195-0.606,2.495-1.099,3.864-1.464c0.265-0.07,0.541,0.087,0.612,0.354    c0.071,0.267-0.087,0.541-0.354,0.612c-1.302,0.348-2.536,0.816-3.669,1.39C26.23,60.264,26.153,60.281,26.077,60.281z     M41.771,58.999c-0.051,0-0.103-0.008-0.154-0.024c-1.255-0.405-2.542-0.679-3.826-0.813c-0.275-0.028-0.474-0.274-0.445-0.549    c0.028-0.275,0.267-0.476,0.549-0.445c1.353,0.141,2.708,0.429,4.03,0.855c0.263,0.084,0.407,0.366,0.322,0.629    C42.179,58.864,41.983,58.999,41.771,58.999z M111.813,53.655c-0.211,0-0.405-0.134-0.476-0.346    c-0.396-1.22-0.883-2.466-1.45-3.704c-0.115-0.251-0.006-0.548,0.245-0.663c0.253-0.114,0.548-0.005,0.663,0.246    c0.583,1.272,1.086,2.555,1.493,3.812c0.085,0.263-0.06,0.545-0.321,0.63C111.916,53.647,111.863,53.655,111.813,53.655z     M106.284,42.925c-0.157,0-0.312-0.073-0.409-0.211c-0.755-1.067-1.576-2.133-2.438-3.17c-0.179-0.212-0.148-0.527,0.063-0.704    c0.212-0.176,0.527-0.147,0.704,0.064c0.879,1.057,1.716,2.145,2.485,3.232c0.16,0.226,0.105,0.538-0.119,0.697    C106.484,42.896,106.383,42.925,106.284,42.925z M19.321,39.568c-0.111,0-0.224-0.037-0.317-0.114    c-0.213-0.175-0.244-0.49-0.069-0.704c0.843-1.026,1.756-2.05,2.715-3.043c0.191-0.199,0.507-0.205,0.707-0.013    c0.199,0.192,0.205,0.508,0.013,0.707c-0.94,0.974-1.836,1.978-2.662,2.983C19.609,39.506,19.466,39.568,19.321,39.568z     M98.223,33.907c-0.119,0-0.24-0.042-0.334-0.129c-0.979-0.886-2.011-1.756-3.061-2.584c-0.217-0.171-0.254-0.485-0.083-0.702    c0.171-0.216,0.485-0.253,0.702-0.083c1.068,0.843,2.115,1.727,3.111,2.628c0.205,0.185,0.221,0.501,0.033,0.706    C98.495,33.852,98.359,33.907,98.223,33.907z M28.022,31.169c-0.149,0-0.297-0.066-0.395-0.193    c-0.17-0.218-0.13-0.532,0.088-0.701c1.066-0.829,2.176-1.633,3.297-2.389c0.228-0.154,0.539-0.094,0.694,0.135    c0.154,0.229,0.094,0.54-0.135,0.694c-1.103,0.744-2.193,1.534-3.243,2.349C28.237,31.135,28.129,31.169,28.022,31.169z     M88.48,26.732c-0.086,0-0.174-0.022-0.254-0.07c-1.147-0.68-2.33-1.327-3.516-1.924c-0.247-0.124-0.346-0.425-0.221-0.671    c0.123-0.247,0.424-0.347,0.671-0.221c1.205,0.607,2.405,1.265,3.573,1.957c0.238,0.141,0.316,0.447,0.177,0.685    C88.818,26.645,88.652,26.732,88.48,26.732z M38.273,24.75c-0.185,0-0.362-0.103-0.449-0.279c-0.122-0.248-0.02-0.547,0.228-0.669    c1.218-0.6,2.468-1.162,3.714-1.67c0.255-0.104,0.548,0.018,0.652,0.274c0.104,0.256-0.019,0.548-0.274,0.652    c-1.225,0.5-2.453,1.052-3.65,1.642C38.423,24.734,38.348,24.75,38.273,24.75z M77.486,21.681c-0.053,0-0.105-0.008-0.158-0.026    c-1.27-0.424-2.563-0.802-3.84-1.122c-0.268-0.067-0.43-0.338-0.362-0.606c0.067-0.268,0.339-0.431,0.606-0.363    c1.302,0.326,2.619,0.711,3.912,1.144c0.263,0.087,0.402,0.371,0.314,0.633C77.891,21.548,77.695,21.681,77.486,21.681z     M49.626,20.596c-0.225,0-0.429-0.152-0.485-0.381c-0.066-0.268,0.098-0.539,0.366-0.604c1.321-0.325,2.664-0.601,3.991-0.822    c0.273-0.047,0.53,0.139,0.575,0.411c0.045,0.272-0.139,0.53-0.411,0.575c-1.302,0.216-2.62,0.488-3.917,0.806    C49.706,20.591,49.666,20.596,49.626,20.596z M65.652,19.23c-0.012,0-0.026,0-0.041-0.001c-1.201-0.097-2.417,0.312-3.611,0.312    L61.62,20c-0.001,0-0.003,0-0.004,0c-0.274,0-0.498-0.679-0.5-0.953c-0.002-0.276,0.22-0.731,0.496-0.733L62,18.199    c1.221,0,2.464-0.008,3.691,0.091c0.274,0.022,0.479,0.235,0.459,0.51C66.13,19.061,65.911,19.23,65.652,19.23z"/>
		<path style="fill:#F5F5F5;" d="M57.479,63.38c-0.132,0-0.264-0.052-0.362-0.155c-0.19-0.2-0.183-0.517,0.018-0.707    c0.524-0.5,1.052-0.948,1.566-1.334c0.222-0.167,0.534-0.122,0.7,0.1c0.166,0.222,0.121,0.535-0.1,0.7    c-0.484,0.363-0.98,0.786-1.477,1.259C57.727,63.334,57.603,63.38,57.479,63.38z"/>
	</g>
	<g>
		<polygon style="fill:#E6E6E6;" points="103,24.583 58,39.583 66,45.583   "/>
		<polygon style="fill:#999999;" points="66,56.583 103,24.583 66,50.583   "/>
		<polygon style="fill:#B3B3B3;" points="72,48.583 66,56.583 66,45.583 103,24.583   "/>
		<polygon style="fill:#CCCCCC;" points="72,48.583 82,58.583 103,24.583   "/>
	</g>
	<g>
		<path style="fill:#F5F5F5;" d="M70,99.583c-0.327,0-0.648,0.024-0.965,0.063c-1.821-2.461-4.736-4.063-8.035-4.063    c-5.526,0-10,4.478-10,10c0,0.331,0.018,0.658,0.05,0.981c-1.237,0.91-2.05,2.571-2.05,4.227c0,2.761,2.237,5.208,5,5.208    c1.065,0,5.521,0,7,0c1.731,0,7.448,0,9,0c4.421,0,8-3.79,8-8.208S74.421,99.583,70,99.583z"/>
		<path style="fill:#E6E6E6;" d="M70,99.583c-0.327,0-0.648,0.024-0.965,0.063c-1.821-2.461-4.736-4.063-8.035-4.063    c-0.357,0-0.71,0.021-1.058,0.058c2.906,0.272,5.447,1.782,7.093,4.006c0.316-0.039,0.638-0.063,0.965-0.063    c4.421,0,8,3.791,8,8.208S72.421,116,68,116c0.859,0,1.583,0,2,0c4.421,0,8-3.79,8-8.208S74.421,99.583,70,99.583z"/>
	</g>
</g>
</svg>
